<mxfile host="app.diagrams.net" modified="2023-08-10T17:11:01.998Z" agent="Mozilla/5.0 (Windows NT 10.0; Win64; x64) AppleWebKit/537.36 (KHTML, like Gecko) Chrome/115.0.0.0 Safari/537.36" etag="Jc1sbmBCjJ67YaFYJ2ck" version="21.6.7" type="gitlab">
  <diagram name="Page-1" id="dUeGmHBjYkYLpgM7HRPr">
    <mxGraphModel dx="800" dy="349" grid="1" gridSize="10" guides="1" tooltips="1" connect="1" arrows="1" fold="1" page="1" pageScale="1" pageWidth="850" pageHeight="1100" math="0" shadow="0">
      <root>
        <mxCell id="0" />
        <mxCell id="1" parent="0" />
        <mxCell id="3Q9VjhLFoMXuuxBaP2ft-168" value="" style="rounded=0;whiteSpace=wrap;html=1;fillColor=#E6E6E6;" vertex="1" parent="1">
          <mxGeometry x="30" y="1110" width="790" height="330" as="geometry" />
        </mxCell>
        <mxCell id="3Q9VjhLFoMXuuxBaP2ft-135" value="" style="rounded=0;whiteSpace=wrap;html=1;fillColor=#FFCCCC;" vertex="1" parent="1">
          <mxGeometry x="20" y="630" width="720" height="420" as="geometry" />
        </mxCell>
        <mxCell id="3Q9VjhLFoMXuuxBaP2ft-73" value="" style="rounded=0;whiteSpace=wrap;html=1;fillColor=#CCFFE6;" vertex="1" parent="1">
          <mxGeometry x="10" y="20" width="810" height="500" as="geometry" />
        </mxCell>
        <mxCell id="3Q9VjhLFoMXuuxBaP2ft-2" value="Continente" style="swimlane;fontStyle=1;align=center;verticalAlign=top;childLayout=stackLayout;horizontal=1;startSize=26;horizontalStack=0;resizeParent=1;resizeParentMax=0;resizeLast=0;collapsible=1;marginBottom=0;whiteSpace=wrap;html=1;" vertex="1" parent="1">
          <mxGeometry x="20" y="60" width="230" height="190" as="geometry" />
        </mxCell>
        <mxCell id="3Q9VjhLFoMXuuxBaP2ft-32" value="- id: Long" style="text;strokeColor=none;fillColor=none;align=left;verticalAlign=top;spacingLeft=4;spacingRight=4;overflow=hidden;rotatable=0;points=[[0,0.5],[1,0.5]];portConstraint=eastwest;whiteSpace=wrap;html=1;" vertex="1" parent="3Q9VjhLFoMXuuxBaP2ft-2">
          <mxGeometry y="26" width="230" height="26" as="geometry" />
        </mxCell>
        <mxCell id="3Q9VjhLFoMXuuxBaP2ft-33" value="- nombre: String" style="text;strokeColor=none;fillColor=none;align=left;verticalAlign=top;spacingLeft=4;spacingRight=4;overflow=hidden;rotatable=0;points=[[0,0.5],[1,0.5]];portConstraint=eastwest;whiteSpace=wrap;html=1;" vertex="1" parent="3Q9VjhLFoMXuuxBaP2ft-2">
          <mxGeometry y="52" width="230" height="26" as="geometry" />
        </mxCell>
        <mxCell id="3Q9VjhLFoMXuuxBaP2ft-3" value="- estado: Boolean" style="text;strokeColor=none;fillColor=none;align=left;verticalAlign=top;spacingLeft=4;spacingRight=4;overflow=hidden;rotatable=0;points=[[0,0.5],[1,0.5]];portConstraint=eastwest;whiteSpace=wrap;html=1;" vertex="1" parent="3Q9VjhLFoMXuuxBaP2ft-2">
          <mxGeometry y="78" width="230" height="26" as="geometry" />
        </mxCell>
        <mxCell id="3Q9VjhLFoMXuuxBaP2ft-5" value="- fechaCreacion: LocalDateTime" style="text;strokeColor=none;fillColor=none;align=left;verticalAlign=top;spacingLeft=4;spacingRight=4;overflow=hidden;rotatable=0;points=[[0,0.5],[1,0.5]];portConstraint=eastwest;whiteSpace=wrap;html=1;" vertex="1" parent="3Q9VjhLFoMXuuxBaP2ft-2">
          <mxGeometry y="104" width="230" height="26" as="geometry" />
        </mxCell>
        <mxCell id="3Q9VjhLFoMXuuxBaP2ft-6" value="- fechaModificacion: LocalDateTime" style="text;strokeColor=none;fillColor=none;align=left;verticalAlign=top;spacingLeft=4;spacingRight=4;overflow=hidden;rotatable=0;points=[[0,0.5],[1,0.5]];portConstraint=eastwest;whiteSpace=wrap;html=1;" vertex="1" parent="3Q9VjhLFoMXuuxBaP2ft-2">
          <mxGeometry y="130" width="230" height="26" as="geometry" />
        </mxCell>
        <mxCell id="3Q9VjhLFoMXuuxBaP2ft-7" value="- fechaEliminacion: LocalDateTime" style="text;strokeColor=none;fillColor=none;align=left;verticalAlign=top;spacingLeft=4;spacingRight=4;overflow=hidden;rotatable=0;points=[[0,0.5],[1,0.5]];portConstraint=eastwest;whiteSpace=wrap;html=1;" vertex="1" parent="3Q9VjhLFoMXuuxBaP2ft-2">
          <mxGeometry y="156" width="230" height="26" as="geometry" />
        </mxCell>
        <mxCell id="3Q9VjhLFoMXuuxBaP2ft-4" value="" style="line;strokeWidth=1;fillColor=none;align=left;verticalAlign=middle;spacingTop=-1;spacingLeft=3;spacingRight=3;rotatable=0;labelPosition=right;points=[];portConstraint=eastwest;strokeColor=inherit;" vertex="1" parent="3Q9VjhLFoMXuuxBaP2ft-2">
          <mxGeometry y="182" width="230" height="8" as="geometry" />
        </mxCell>
        <mxCell id="3Q9VjhLFoMXuuxBaP2ft-8" value="Auditoria" style="swimlane;fontStyle=1;align=center;verticalAlign=top;childLayout=stackLayout;horizontal=1;startSize=26;horizontalStack=0;resizeParent=1;resizeParentMax=0;resizeLast=0;collapsible=1;marginBottom=0;whiteSpace=wrap;html=1;" vertex="1" parent="1">
          <mxGeometry x="425" y="690" width="240" height="138" as="geometry" />
        </mxCell>
        <mxCell id="3Q9VjhLFoMXuuxBaP2ft-9" value="- estado: Boolean" style="text;strokeColor=none;fillColor=none;align=left;verticalAlign=top;spacingLeft=4;spacingRight=4;overflow=hidden;rotatable=0;points=[[0,0.5],[1,0.5]];portConstraint=eastwest;whiteSpace=wrap;html=1;" vertex="1" parent="3Q9VjhLFoMXuuxBaP2ft-8">
          <mxGeometry y="26" width="240" height="26" as="geometry" />
        </mxCell>
        <mxCell id="3Q9VjhLFoMXuuxBaP2ft-10" value="- fechaCreacion: LocalDateTime" style="text;strokeColor=none;fillColor=none;align=left;verticalAlign=top;spacingLeft=4;spacingRight=4;overflow=hidden;rotatable=0;points=[[0,0.5],[1,0.5]];portConstraint=eastwest;whiteSpace=wrap;html=1;" vertex="1" parent="3Q9VjhLFoMXuuxBaP2ft-8">
          <mxGeometry y="52" width="240" height="26" as="geometry" />
        </mxCell>
        <mxCell id="3Q9VjhLFoMXuuxBaP2ft-11" value="- fechaModificacion: LocalDateTime" style="text;strokeColor=none;fillColor=none;align=left;verticalAlign=top;spacingLeft=4;spacingRight=4;overflow=hidden;rotatable=0;points=[[0,0.5],[1,0.5]];portConstraint=eastwest;whiteSpace=wrap;html=1;" vertex="1" parent="3Q9VjhLFoMXuuxBaP2ft-8">
          <mxGeometry y="78" width="240" height="26" as="geometry" />
        </mxCell>
        <mxCell id="3Q9VjhLFoMXuuxBaP2ft-12" value="- fechaEliminacion: LocalDateTime" style="text;strokeColor=none;fillColor=none;align=left;verticalAlign=top;spacingLeft=4;spacingRight=4;overflow=hidden;rotatable=0;points=[[0,0.5],[1,0.5]];portConstraint=eastwest;whiteSpace=wrap;html=1;" vertex="1" parent="3Q9VjhLFoMXuuxBaP2ft-8">
          <mxGeometry y="104" width="240" height="26" as="geometry" />
        </mxCell>
        <mxCell id="3Q9VjhLFoMXuuxBaP2ft-13" value="" style="line;strokeWidth=1;fillColor=none;align=left;verticalAlign=middle;spacingTop=-1;spacingLeft=3;spacingRight=3;rotatable=0;labelPosition=right;points=[];portConstraint=eastwest;strokeColor=inherit;" vertex="1" parent="3Q9VjhLFoMXuuxBaP2ft-8">
          <mxGeometry y="130" width="240" height="8" as="geometry" />
        </mxCell>
        <mxCell id="3Q9VjhLFoMXuuxBaP2ft-36" value="Pais" style="swimlane;fontStyle=1;align=center;verticalAlign=top;childLayout=stackLayout;horizontal=1;startSize=26;horizontalStack=0;resizeParent=1;resizeParentMax=0;resizeLast=0;collapsible=1;marginBottom=0;whiteSpace=wrap;html=1;" vertex="1" parent="1">
          <mxGeometry x="300" y="60" width="230" height="216" as="geometry" />
        </mxCell>
        <mxCell id="3Q9VjhLFoMXuuxBaP2ft-37" value="- id: Long" style="text;strokeColor=none;fillColor=none;align=left;verticalAlign=top;spacingLeft=4;spacingRight=4;overflow=hidden;rotatable=0;points=[[0,0.5],[1,0.5]];portConstraint=eastwest;whiteSpace=wrap;html=1;" vertex="1" parent="3Q9VjhLFoMXuuxBaP2ft-36">
          <mxGeometry y="26" width="230" height="26" as="geometry" />
        </mxCell>
        <mxCell id="3Q9VjhLFoMXuuxBaP2ft-38" value="- nombre: String" style="text;strokeColor=none;fillColor=none;align=left;verticalAlign=top;spacingLeft=4;spacingRight=4;overflow=hidden;rotatable=0;points=[[0,0.5],[1,0.5]];portConstraint=eastwest;whiteSpace=wrap;html=1;" vertex="1" parent="3Q9VjhLFoMXuuxBaP2ft-36">
          <mxGeometry y="52" width="230" height="26" as="geometry" />
        </mxCell>
        <mxCell id="3Q9VjhLFoMXuuxBaP2ft-52" value="- continenteId: Continente" style="text;strokeColor=none;fillColor=none;align=left;verticalAlign=top;spacingLeft=4;spacingRight=4;overflow=hidden;rotatable=0;points=[[0,0.5],[1,0.5]];portConstraint=eastwest;whiteSpace=wrap;html=1;" vertex="1" parent="3Q9VjhLFoMXuuxBaP2ft-36">
          <mxGeometry y="78" width="230" height="26" as="geometry" />
        </mxCell>
        <mxCell id="3Q9VjhLFoMXuuxBaP2ft-39" value="- estado: Boolean" style="text;strokeColor=none;fillColor=none;align=left;verticalAlign=top;spacingLeft=4;spacingRight=4;overflow=hidden;rotatable=0;points=[[0,0.5],[1,0.5]];portConstraint=eastwest;whiteSpace=wrap;html=1;" vertex="1" parent="3Q9VjhLFoMXuuxBaP2ft-36">
          <mxGeometry y="104" width="230" height="26" as="geometry" />
        </mxCell>
        <mxCell id="3Q9VjhLFoMXuuxBaP2ft-40" value="- fechaCreacion: LocalDateTime" style="text;strokeColor=none;fillColor=none;align=left;verticalAlign=top;spacingLeft=4;spacingRight=4;overflow=hidden;rotatable=0;points=[[0,0.5],[1,0.5]];portConstraint=eastwest;whiteSpace=wrap;html=1;" vertex="1" parent="3Q9VjhLFoMXuuxBaP2ft-36">
          <mxGeometry y="130" width="230" height="26" as="geometry" />
        </mxCell>
        <mxCell id="3Q9VjhLFoMXuuxBaP2ft-41" value="- fechaModificacion: LocalDateTime" style="text;strokeColor=none;fillColor=none;align=left;verticalAlign=top;spacingLeft=4;spacingRight=4;overflow=hidden;rotatable=0;points=[[0,0.5],[1,0.5]];portConstraint=eastwest;whiteSpace=wrap;html=1;" vertex="1" parent="3Q9VjhLFoMXuuxBaP2ft-36">
          <mxGeometry y="156" width="230" height="26" as="geometry" />
        </mxCell>
        <mxCell id="3Q9VjhLFoMXuuxBaP2ft-42" value="- fechaEliminacion: LocalDateTime" style="text;strokeColor=none;fillColor=none;align=left;verticalAlign=top;spacingLeft=4;spacingRight=4;overflow=hidden;rotatable=0;points=[[0,0.5],[1,0.5]];portConstraint=eastwest;whiteSpace=wrap;html=1;" vertex="1" parent="3Q9VjhLFoMXuuxBaP2ft-36">
          <mxGeometry y="182" width="230" height="26" as="geometry" />
        </mxCell>
        <mxCell id="3Q9VjhLFoMXuuxBaP2ft-43" value="" style="line;strokeWidth=1;fillColor=none;align=left;verticalAlign=middle;spacingTop=-1;spacingLeft=3;spacingRight=3;rotatable=0;labelPosition=right;points=[];portConstraint=eastwest;strokeColor=inherit;" vertex="1" parent="3Q9VjhLFoMXuuxBaP2ft-36">
          <mxGeometry y="208" width="230" height="8" as="geometry" />
        </mxCell>
        <mxCell id="3Q9VjhLFoMXuuxBaP2ft-54" value="Estado" style="swimlane;fontStyle=1;align=center;verticalAlign=top;childLayout=stackLayout;horizontal=1;startSize=26;horizontalStack=0;resizeParent=1;resizeParentMax=0;resizeLast=0;collapsible=1;marginBottom=0;whiteSpace=wrap;html=1;" vertex="1" parent="1">
          <mxGeometry x="580" y="60" width="230" height="216" as="geometry" />
        </mxCell>
        <mxCell id="3Q9VjhLFoMXuuxBaP2ft-55" value="- id: Long" style="text;strokeColor=none;fillColor=none;align=left;verticalAlign=top;spacingLeft=4;spacingRight=4;overflow=hidden;rotatable=0;points=[[0,0.5],[1,0.5]];portConstraint=eastwest;whiteSpace=wrap;html=1;" vertex="1" parent="3Q9VjhLFoMXuuxBaP2ft-54">
          <mxGeometry y="26" width="230" height="26" as="geometry" />
        </mxCell>
        <mxCell id="3Q9VjhLFoMXuuxBaP2ft-56" value="- nombre: String" style="text;strokeColor=none;fillColor=none;align=left;verticalAlign=top;spacingLeft=4;spacingRight=4;overflow=hidden;rotatable=0;points=[[0,0.5],[1,0.5]];portConstraint=eastwest;whiteSpace=wrap;html=1;" vertex="1" parent="3Q9VjhLFoMXuuxBaP2ft-54">
          <mxGeometry y="52" width="230" height="26" as="geometry" />
        </mxCell>
        <mxCell id="3Q9VjhLFoMXuuxBaP2ft-57" value="- paisId: Pais" style="text;strokeColor=none;fillColor=none;align=left;verticalAlign=top;spacingLeft=4;spacingRight=4;overflow=hidden;rotatable=0;points=[[0,0.5],[1,0.5]];portConstraint=eastwest;whiteSpace=wrap;html=1;" vertex="1" parent="3Q9VjhLFoMXuuxBaP2ft-54">
          <mxGeometry y="78" width="230" height="26" as="geometry" />
        </mxCell>
        <mxCell id="3Q9VjhLFoMXuuxBaP2ft-58" value="- estado: Boolean" style="text;strokeColor=none;fillColor=none;align=left;verticalAlign=top;spacingLeft=4;spacingRight=4;overflow=hidden;rotatable=0;points=[[0,0.5],[1,0.5]];portConstraint=eastwest;whiteSpace=wrap;html=1;" vertex="1" parent="3Q9VjhLFoMXuuxBaP2ft-54">
          <mxGeometry y="104" width="230" height="26" as="geometry" />
        </mxCell>
        <mxCell id="3Q9VjhLFoMXuuxBaP2ft-59" value="- fechaCreacion: LocalDateTime" style="text;strokeColor=none;fillColor=none;align=left;verticalAlign=top;spacingLeft=4;spacingRight=4;overflow=hidden;rotatable=0;points=[[0,0.5],[1,0.5]];portConstraint=eastwest;whiteSpace=wrap;html=1;" vertex="1" parent="3Q9VjhLFoMXuuxBaP2ft-54">
          <mxGeometry y="130" width="230" height="26" as="geometry" />
        </mxCell>
        <mxCell id="3Q9VjhLFoMXuuxBaP2ft-60" value="- fechaModificacion: LocalDateTime" style="text;strokeColor=none;fillColor=none;align=left;verticalAlign=top;spacingLeft=4;spacingRight=4;overflow=hidden;rotatable=0;points=[[0,0.5],[1,0.5]];portConstraint=eastwest;whiteSpace=wrap;html=1;" vertex="1" parent="3Q9VjhLFoMXuuxBaP2ft-54">
          <mxGeometry y="156" width="230" height="26" as="geometry" />
        </mxCell>
        <mxCell id="3Q9VjhLFoMXuuxBaP2ft-61" value="- fechaEliminacion: LocalDateTime" style="text;strokeColor=none;fillColor=none;align=left;verticalAlign=top;spacingLeft=4;spacingRight=4;overflow=hidden;rotatable=0;points=[[0,0.5],[1,0.5]];portConstraint=eastwest;whiteSpace=wrap;html=1;" vertex="1" parent="3Q9VjhLFoMXuuxBaP2ft-54">
          <mxGeometry y="182" width="230" height="26" as="geometry" />
        </mxCell>
        <mxCell id="3Q9VjhLFoMXuuxBaP2ft-62" value="" style="line;strokeWidth=1;fillColor=none;align=left;verticalAlign=middle;spacingTop=-1;spacingLeft=3;spacingRight=3;rotatable=0;labelPosition=right;points=[];portConstraint=eastwest;strokeColor=inherit;" vertex="1" parent="3Q9VjhLFoMXuuxBaP2ft-54">
          <mxGeometry y="208" width="230" height="8" as="geometry" />
        </mxCell>
        <mxCell id="3Q9VjhLFoMXuuxBaP2ft-63" value="Ciudad" style="swimlane;fontStyle=1;align=center;verticalAlign=top;childLayout=stackLayout;horizontal=1;startSize=26;horizontalStack=0;resizeParent=1;resizeParentMax=0;resizeLast=0;collapsible=1;marginBottom=0;whiteSpace=wrap;html=1;" vertex="1" parent="1">
          <mxGeometry x="580" y="290" width="230" height="212" as="geometry" />
        </mxCell>
        <mxCell id="3Q9VjhLFoMXuuxBaP2ft-64" value="- id: Long" style="text;strokeColor=none;fillColor=none;align=left;verticalAlign=top;spacingLeft=4;spacingRight=4;overflow=hidden;rotatable=0;points=[[0,0.5],[1,0.5]];portConstraint=eastwest;whiteSpace=wrap;html=1;" vertex="1" parent="3Q9VjhLFoMXuuxBaP2ft-63">
          <mxGeometry y="26" width="230" height="22" as="geometry" />
        </mxCell>
        <mxCell id="3Q9VjhLFoMXuuxBaP2ft-65" value="- nombre: String" style="text;strokeColor=none;fillColor=none;align=left;verticalAlign=top;spacingLeft=4;spacingRight=4;overflow=hidden;rotatable=0;points=[[0,0.5],[1,0.5]];portConstraint=eastwest;whiteSpace=wrap;html=1;" vertex="1" parent="3Q9VjhLFoMXuuxBaP2ft-63">
          <mxGeometry y="48" width="230" height="26" as="geometry" />
        </mxCell>
        <mxCell id="3Q9VjhLFoMXuuxBaP2ft-66" value="- estadoId: Estado" style="text;strokeColor=none;fillColor=none;align=left;verticalAlign=top;spacingLeft=4;spacingRight=4;overflow=hidden;rotatable=0;points=[[0,0.5],[1,0.5]];portConstraint=eastwest;whiteSpace=wrap;html=1;" vertex="1" parent="3Q9VjhLFoMXuuxBaP2ft-63">
          <mxGeometry y="74" width="230" height="26" as="geometry" />
        </mxCell>
        <mxCell id="3Q9VjhLFoMXuuxBaP2ft-67" value="- estado: Boolean" style="text;strokeColor=none;fillColor=none;align=left;verticalAlign=top;spacingLeft=4;spacingRight=4;overflow=hidden;rotatable=0;points=[[0,0.5],[1,0.5]];portConstraint=eastwest;whiteSpace=wrap;html=1;" vertex="1" parent="3Q9VjhLFoMXuuxBaP2ft-63">
          <mxGeometry y="100" width="230" height="26" as="geometry" />
        </mxCell>
        <mxCell id="3Q9VjhLFoMXuuxBaP2ft-68" value="- fechaCreacion: LocalDateTime" style="text;strokeColor=none;fillColor=none;align=left;verticalAlign=top;spacingLeft=4;spacingRight=4;overflow=hidden;rotatable=0;points=[[0,0.5],[1,0.5]];portConstraint=eastwest;whiteSpace=wrap;html=1;" vertex="1" parent="3Q9VjhLFoMXuuxBaP2ft-63">
          <mxGeometry y="126" width="230" height="26" as="geometry" />
        </mxCell>
        <mxCell id="3Q9VjhLFoMXuuxBaP2ft-69" value="- fechaModificacion: LocalDateTime" style="text;strokeColor=none;fillColor=none;align=left;verticalAlign=top;spacingLeft=4;spacingRight=4;overflow=hidden;rotatable=0;points=[[0,0.5],[1,0.5]];portConstraint=eastwest;whiteSpace=wrap;html=1;" vertex="1" parent="3Q9VjhLFoMXuuxBaP2ft-63">
          <mxGeometry y="152" width="230" height="26" as="geometry" />
        </mxCell>
        <mxCell id="3Q9VjhLFoMXuuxBaP2ft-70" value="- fechaEliminacion: LocalDateTime" style="text;strokeColor=none;fillColor=none;align=left;verticalAlign=top;spacingLeft=4;spacingRight=4;overflow=hidden;rotatable=0;points=[[0,0.5],[1,0.5]];portConstraint=eastwest;whiteSpace=wrap;html=1;" vertex="1" parent="3Q9VjhLFoMXuuxBaP2ft-63">
          <mxGeometry y="178" width="230" height="26" as="geometry" />
        </mxCell>
        <mxCell id="3Q9VjhLFoMXuuxBaP2ft-71" value="" style="line;strokeWidth=1;fillColor=none;align=left;verticalAlign=middle;spacingTop=-1;spacingLeft=3;spacingRight=3;rotatable=0;labelPosition=right;points=[];portConstraint=eastwest;strokeColor=inherit;" vertex="1" parent="3Q9VjhLFoMXuuxBaP2ft-63">
          <mxGeometry y="204" width="230" height="8" as="geometry" />
        </mxCell>
        <mxCell id="3Q9VjhLFoMXuuxBaP2ft-72" value="&lt;font style=&quot;font-size: 18px;&quot;&gt;CASO 1&lt;/font&gt;" style="rounded=0;whiteSpace=wrap;html=1;" vertex="1" parent="1">
          <mxGeometry x="220" y="310" width="240" height="130" as="geometry" />
        </mxCell>
        <mxCell id="3Q9VjhLFoMXuuxBaP2ft-74" value="" style="endArrow=none;html=1;edgeStyle=orthogonalEdgeStyle;rounded=0;entryX=-0.005;entryY=0.681;entryDx=0;entryDy=0;entryPerimeter=0;exitX=1.003;exitY=0.083;exitDx=0;exitDy=0;exitPerimeter=0;" edge="1" parent="1" source="3Q9VjhLFoMXuuxBaP2ft-2" target="3Q9VjhLFoMXuuxBaP2ft-52">
          <mxGeometry relative="1" as="geometry">
            <mxPoint x="290" y="137" as="sourcePoint" />
            <mxPoint x="440" y="137.05" as="targetPoint" />
          </mxGeometry>
        </mxCell>
        <mxCell id="3Q9VjhLFoMXuuxBaP2ft-75" value="parent" style="edgeLabel;resizable=0;html=1;align=left;verticalAlign=bottom;" connectable="0" vertex="1" parent="3Q9VjhLFoMXuuxBaP2ft-74">
          <mxGeometry x="-1" relative="1" as="geometry" />
        </mxCell>
        <mxCell id="3Q9VjhLFoMXuuxBaP2ft-76" value="child" style="edgeLabel;resizable=0;html=1;align=right;verticalAlign=bottom;" connectable="0" vertex="1" parent="3Q9VjhLFoMXuuxBaP2ft-74">
          <mxGeometry x="1" relative="1" as="geometry" />
        </mxCell>
        <mxCell id="3Q9VjhLFoMXuuxBaP2ft-77" value="" style="endArrow=none;html=1;edgeStyle=orthogonalEdgeStyle;rounded=0;entryX=-0.012;entryY=0.602;entryDx=0;entryDy=0;entryPerimeter=0;exitX=0.989;exitY=0.073;exitDx=0;exitDy=0;exitPerimeter=0;" edge="1" parent="1" source="3Q9VjhLFoMXuuxBaP2ft-36" target="3Q9VjhLFoMXuuxBaP2ft-57">
          <mxGeometry relative="1" as="geometry">
            <mxPoint x="550" y="100" as="sourcePoint" />
            <mxPoint x="578" y="180" as="targetPoint" />
          </mxGeometry>
        </mxCell>
        <mxCell id="3Q9VjhLFoMXuuxBaP2ft-78" value="parent" style="edgeLabel;resizable=0;html=1;align=left;verticalAlign=bottom;" connectable="0" vertex="1" parent="3Q9VjhLFoMXuuxBaP2ft-77">
          <mxGeometry x="-1" relative="1" as="geometry" />
        </mxCell>
        <mxCell id="3Q9VjhLFoMXuuxBaP2ft-79" value="child" style="edgeLabel;resizable=0;html=1;align=right;verticalAlign=bottom;" connectable="0" vertex="1" parent="3Q9VjhLFoMXuuxBaP2ft-77">
          <mxGeometry x="1" relative="1" as="geometry" />
        </mxCell>
        <mxCell id="3Q9VjhLFoMXuuxBaP2ft-80" value="" style="endArrow=none;html=1;edgeStyle=orthogonalEdgeStyle;rounded=0;entryX=-0.031;entryY=0.796;entryDx=0;entryDy=0;entryPerimeter=0;exitX=0;exitY=0.839;exitDx=0;exitDy=0;exitPerimeter=0;" edge="1" parent="1" source="3Q9VjhLFoMXuuxBaP2ft-61" target="3Q9VjhLFoMXuuxBaP2ft-66">
          <mxGeometry relative="1" as="geometry">
            <mxPoint x="557" y="86" as="sourcePoint" />
            <mxPoint x="587" y="164" as="targetPoint" />
            <Array as="points">
              <mxPoint x="560" y="264" />
              <mxPoint x="560" y="385" />
            </Array>
          </mxGeometry>
        </mxCell>
        <mxCell id="3Q9VjhLFoMXuuxBaP2ft-81" value="parent" style="edgeLabel;resizable=0;html=1;align=left;verticalAlign=bottom;" connectable="0" vertex="1" parent="3Q9VjhLFoMXuuxBaP2ft-80">
          <mxGeometry x="-1" relative="1" as="geometry" />
        </mxCell>
        <mxCell id="3Q9VjhLFoMXuuxBaP2ft-82" value="child" style="edgeLabel;resizable=0;html=1;align=right;verticalAlign=bottom;" connectable="0" vertex="1" parent="3Q9VjhLFoMXuuxBaP2ft-80">
          <mxGeometry x="1" relative="1" as="geometry" />
        </mxCell>
        <mxCell id="3Q9VjhLFoMXuuxBaP2ft-92" value="Continente" style="swimlane;fontStyle=1;align=center;verticalAlign=top;childLayout=stackLayout;horizontal=1;startSize=26;horizontalStack=0;resizeParent=1;resizeParentMax=0;resizeLast=0;collapsible=1;marginBottom=0;whiteSpace=wrap;html=1;" vertex="1" parent="1">
          <mxGeometry x="80" y="670" width="230" height="86" as="geometry" />
        </mxCell>
        <mxCell id="3Q9VjhLFoMXuuxBaP2ft-93" value="- id: Long" style="text;strokeColor=none;fillColor=none;align=left;verticalAlign=top;spacingLeft=4;spacingRight=4;overflow=hidden;rotatable=0;points=[[0,0.5],[1,0.5]];portConstraint=eastwest;whiteSpace=wrap;html=1;" vertex="1" parent="3Q9VjhLFoMXuuxBaP2ft-92">
          <mxGeometry y="26" width="230" height="26" as="geometry" />
        </mxCell>
        <mxCell id="3Q9VjhLFoMXuuxBaP2ft-94" value="- nombre: String" style="text;strokeColor=none;fillColor=none;align=left;verticalAlign=top;spacingLeft=4;spacingRight=4;overflow=hidden;rotatable=0;points=[[0,0.5],[1,0.5]];portConstraint=eastwest;whiteSpace=wrap;html=1;" vertex="1" parent="3Q9VjhLFoMXuuxBaP2ft-92">
          <mxGeometry y="52" width="230" height="26" as="geometry" />
        </mxCell>
        <mxCell id="3Q9VjhLFoMXuuxBaP2ft-100" value="" style="line;strokeWidth=1;fillColor=none;align=left;verticalAlign=middle;spacingTop=-1;spacingLeft=3;spacingRight=3;rotatable=0;labelPosition=right;points=[];portConstraint=eastwest;strokeColor=inherit;" vertex="1" parent="3Q9VjhLFoMXuuxBaP2ft-92">
          <mxGeometry y="78" width="230" height="8" as="geometry" />
        </mxCell>
        <mxCell id="3Q9VjhLFoMXuuxBaP2ft-101" value="Ciudad" style="swimlane;fontStyle=1;align=center;verticalAlign=top;childLayout=stackLayout;horizontal=1;startSize=26;horizontalStack=0;resizeParent=1;resizeParentMax=0;resizeLast=0;collapsible=1;marginBottom=0;whiteSpace=wrap;html=1;" vertex="1" parent="1">
          <mxGeometry x="390" y="910" width="230" height="112" as="geometry" />
        </mxCell>
        <mxCell id="3Q9VjhLFoMXuuxBaP2ft-102" value="- id: Long" style="text;strokeColor=none;fillColor=none;align=left;verticalAlign=top;spacingLeft=4;spacingRight=4;overflow=hidden;rotatable=0;points=[[0,0.5],[1,0.5]];portConstraint=eastwest;whiteSpace=wrap;html=1;" vertex="1" parent="3Q9VjhLFoMXuuxBaP2ft-101">
          <mxGeometry y="26" width="230" height="26" as="geometry" />
        </mxCell>
        <mxCell id="3Q9VjhLFoMXuuxBaP2ft-103" value="- nombre: String" style="text;strokeColor=none;fillColor=none;align=left;verticalAlign=top;spacingLeft=4;spacingRight=4;overflow=hidden;rotatable=0;points=[[0,0.5],[1,0.5]];portConstraint=eastwest;whiteSpace=wrap;html=1;" vertex="1" parent="3Q9VjhLFoMXuuxBaP2ft-101">
          <mxGeometry y="52" width="230" height="26" as="geometry" />
        </mxCell>
        <mxCell id="3Q9VjhLFoMXuuxBaP2ft-104" value="- estadoId: Estado" style="text;strokeColor=none;fillColor=none;align=left;verticalAlign=top;spacingLeft=4;spacingRight=4;overflow=hidden;rotatable=0;points=[[0,0.5],[1,0.5]];portConstraint=eastwest;whiteSpace=wrap;html=1;" vertex="1" parent="3Q9VjhLFoMXuuxBaP2ft-101">
          <mxGeometry y="78" width="230" height="26" as="geometry" />
        </mxCell>
        <mxCell id="3Q9VjhLFoMXuuxBaP2ft-105" value="" style="line;strokeWidth=1;fillColor=none;align=left;verticalAlign=middle;spacingTop=-1;spacingLeft=3;spacingRight=3;rotatable=0;labelPosition=right;points=[];portConstraint=eastwest;strokeColor=inherit;" vertex="1" parent="3Q9VjhLFoMXuuxBaP2ft-101">
          <mxGeometry y="104" width="230" height="8" as="geometry" />
        </mxCell>
        <mxCell id="3Q9VjhLFoMXuuxBaP2ft-106" value="Pais" style="swimlane;fontStyle=1;align=center;verticalAlign=top;childLayout=stackLayout;horizontal=1;startSize=26;horizontalStack=0;resizeParent=1;resizeParentMax=0;resizeLast=0;collapsible=1;marginBottom=0;whiteSpace=wrap;html=1;" vertex="1" parent="1">
          <mxGeometry x="80" y="780" width="230" height="112" as="geometry" />
        </mxCell>
        <mxCell id="3Q9VjhLFoMXuuxBaP2ft-107" value="- id: Long" style="text;strokeColor=none;fillColor=none;align=left;verticalAlign=top;spacingLeft=4;spacingRight=4;overflow=hidden;rotatable=0;points=[[0,0.5],[1,0.5]];portConstraint=eastwest;whiteSpace=wrap;html=1;" vertex="1" parent="3Q9VjhLFoMXuuxBaP2ft-106">
          <mxGeometry y="26" width="230" height="26" as="geometry" />
        </mxCell>
        <mxCell id="3Q9VjhLFoMXuuxBaP2ft-108" value="- nombre: String" style="text;strokeColor=none;fillColor=none;align=left;verticalAlign=top;spacingLeft=4;spacingRight=4;overflow=hidden;rotatable=0;points=[[0,0.5],[1,0.5]];portConstraint=eastwest;whiteSpace=wrap;html=1;" vertex="1" parent="3Q9VjhLFoMXuuxBaP2ft-106">
          <mxGeometry y="52" width="230" height="26" as="geometry" />
        </mxCell>
        <mxCell id="3Q9VjhLFoMXuuxBaP2ft-109" value="- continente: Continente" style="text;strokeColor=none;fillColor=none;align=left;verticalAlign=top;spacingLeft=4;spacingRight=4;overflow=hidden;rotatable=0;points=[[0,0.5],[1,0.5]];portConstraint=eastwest;whiteSpace=wrap;html=1;" vertex="1" parent="3Q9VjhLFoMXuuxBaP2ft-106">
          <mxGeometry y="78" width="230" height="26" as="geometry" />
        </mxCell>
        <mxCell id="3Q9VjhLFoMXuuxBaP2ft-110" value="" style="line;strokeWidth=1;fillColor=none;align=left;verticalAlign=middle;spacingTop=-1;spacingLeft=3;spacingRight=3;rotatable=0;labelPosition=right;points=[];portConstraint=eastwest;strokeColor=inherit;" vertex="1" parent="3Q9VjhLFoMXuuxBaP2ft-106">
          <mxGeometry y="104" width="230" height="8" as="geometry" />
        </mxCell>
        <mxCell id="3Q9VjhLFoMXuuxBaP2ft-111" value="Estado" style="swimlane;fontStyle=1;align=center;verticalAlign=top;childLayout=stackLayout;horizontal=1;startSize=26;horizontalStack=0;resizeParent=1;resizeParentMax=0;resizeLast=0;collapsible=1;marginBottom=0;whiteSpace=wrap;html=1;" vertex="1" parent="1">
          <mxGeometry x="80" y="910" width="230" height="112" as="geometry" />
        </mxCell>
        <mxCell id="3Q9VjhLFoMXuuxBaP2ft-112" value="- id: Long" style="text;strokeColor=none;fillColor=none;align=left;verticalAlign=top;spacingLeft=4;spacingRight=4;overflow=hidden;rotatable=0;points=[[0,0.5],[1,0.5]];portConstraint=eastwest;whiteSpace=wrap;html=1;" vertex="1" parent="3Q9VjhLFoMXuuxBaP2ft-111">
          <mxGeometry y="26" width="230" height="26" as="geometry" />
        </mxCell>
        <mxCell id="3Q9VjhLFoMXuuxBaP2ft-113" value="- nombre: String" style="text;strokeColor=none;fillColor=none;align=left;verticalAlign=top;spacingLeft=4;spacingRight=4;overflow=hidden;rotatable=0;points=[[0,0.5],[1,0.5]];portConstraint=eastwest;whiteSpace=wrap;html=1;" vertex="1" parent="3Q9VjhLFoMXuuxBaP2ft-111">
          <mxGeometry y="52" width="230" height="26" as="geometry" />
        </mxCell>
        <mxCell id="3Q9VjhLFoMXuuxBaP2ft-114" value="- pais: Pais" style="text;strokeColor=none;fillColor=none;align=left;verticalAlign=top;spacingLeft=4;spacingRight=4;overflow=hidden;rotatable=0;points=[[0,0.5],[1,0.5]];portConstraint=eastwest;whiteSpace=wrap;html=1;" vertex="1" parent="3Q9VjhLFoMXuuxBaP2ft-111">
          <mxGeometry y="78" width="230" height="26" as="geometry" />
        </mxCell>
        <mxCell id="3Q9VjhLFoMXuuxBaP2ft-115" value="" style="line;strokeWidth=1;fillColor=none;align=left;verticalAlign=middle;spacingTop=-1;spacingLeft=3;spacingRight=3;rotatable=0;labelPosition=right;points=[];portConstraint=eastwest;strokeColor=inherit;" vertex="1" parent="3Q9VjhLFoMXuuxBaP2ft-111">
          <mxGeometry y="104" width="230" height="8" as="geometry" />
        </mxCell>
        <mxCell id="3Q9VjhLFoMXuuxBaP2ft-122" value="" style="endArrow=none;html=1;edgeStyle=orthogonalEdgeStyle;rounded=0;exitX=-0.019;exitY=0.139;exitDx=0;exitDy=0;exitPerimeter=0;entryX=-0.005;entryY=0.125;entryDx=0;entryDy=0;entryPerimeter=0;" edge="1" parent="1" source="3Q9VjhLFoMXuuxBaP2ft-92" target="3Q9VjhLFoMXuuxBaP2ft-106">
          <mxGeometry relative="1" as="geometry">
            <mxPoint x="180" y="800" as="sourcePoint" />
            <mxPoint x="340" y="800" as="targetPoint" />
            <Array as="points">
              <mxPoint x="60" y="682" />
              <mxPoint x="60" y="790" />
              <mxPoint x="79" y="790" />
            </Array>
          </mxGeometry>
        </mxCell>
        <mxCell id="3Q9VjhLFoMXuuxBaP2ft-123" value="parent" style="edgeLabel;resizable=0;html=1;align=left;verticalAlign=bottom;" connectable="0" vertex="1" parent="3Q9VjhLFoMXuuxBaP2ft-122">
          <mxGeometry x="-1" relative="1" as="geometry" />
        </mxCell>
        <mxCell id="3Q9VjhLFoMXuuxBaP2ft-124" value="child" style="edgeLabel;resizable=0;html=1;align=right;verticalAlign=bottom;" connectable="0" vertex="1" parent="3Q9VjhLFoMXuuxBaP2ft-122">
          <mxGeometry x="1" relative="1" as="geometry" />
        </mxCell>
        <mxCell id="3Q9VjhLFoMXuuxBaP2ft-125" value="" style="endArrow=none;html=1;edgeStyle=orthogonalEdgeStyle;rounded=0;entryX=1;entryY=0.151;entryDx=0;entryDy=0;entryPerimeter=0;exitX=1.019;exitY=0.106;exitDx=0;exitDy=0;exitPerimeter=0;" edge="1" parent="1" source="3Q9VjhLFoMXuuxBaP2ft-106" target="3Q9VjhLFoMXuuxBaP2ft-111">
          <mxGeometry relative="1" as="geometry">
            <mxPoint x="180" y="800" as="sourcePoint" />
            <mxPoint x="340" y="800" as="targetPoint" />
            <Array as="points">
              <mxPoint x="330" y="792" />
              <mxPoint x="330" y="927" />
            </Array>
          </mxGeometry>
        </mxCell>
        <mxCell id="3Q9VjhLFoMXuuxBaP2ft-126" value="parent" style="edgeLabel;resizable=0;html=1;align=left;verticalAlign=bottom;" connectable="0" vertex="1" parent="3Q9VjhLFoMXuuxBaP2ft-125">
          <mxGeometry x="-1" relative="1" as="geometry" />
        </mxCell>
        <mxCell id="3Q9VjhLFoMXuuxBaP2ft-127" value="child" style="edgeLabel;resizable=0;html=1;align=right;verticalAlign=bottom;" connectable="0" vertex="1" parent="3Q9VjhLFoMXuuxBaP2ft-125">
          <mxGeometry x="1" relative="1" as="geometry" />
        </mxCell>
        <mxCell id="3Q9VjhLFoMXuuxBaP2ft-128" value="" style="endArrow=none;html=1;edgeStyle=orthogonalEdgeStyle;rounded=0;entryX=0.007;entryY=0.133;entryDx=0;entryDy=0;entryPerimeter=0;exitX=1;exitY=0.5;exitDx=0;exitDy=0;" edge="1" parent="1" source="3Q9VjhLFoMXuuxBaP2ft-114" target="3Q9VjhLFoMXuuxBaP2ft-101">
          <mxGeometry relative="1" as="geometry">
            <mxPoint x="310" y="1060" as="sourcePoint" />
            <mxPoint x="250" y="910" as="targetPoint" />
          </mxGeometry>
        </mxCell>
        <mxCell id="3Q9VjhLFoMXuuxBaP2ft-129" value="parent" style="edgeLabel;resizable=0;html=1;align=left;verticalAlign=bottom;" connectable="0" vertex="1" parent="3Q9VjhLFoMXuuxBaP2ft-128">
          <mxGeometry x="-1" relative="1" as="geometry" />
        </mxCell>
        <mxCell id="3Q9VjhLFoMXuuxBaP2ft-130" value="child" style="edgeLabel;resizable=0;html=1;align=right;verticalAlign=bottom;" connectable="0" vertex="1" parent="3Q9VjhLFoMXuuxBaP2ft-128">
          <mxGeometry x="1" relative="1" as="geometry" />
        </mxCell>
        <mxCell id="3Q9VjhLFoMXuuxBaP2ft-131" value="Extends" style="endArrow=block;endSize=16;endFill=0;html=1;rounded=0;exitX=1;exitY=0.5;exitDx=0;exitDy=0;entryX=0;entryY=0.5;entryDx=0;entryDy=0;" edge="1" parent="1" source="3Q9VjhLFoMXuuxBaP2ft-94" target="3Q9VjhLFoMXuuxBaP2ft-9">
          <mxGeometry width="160" relative="1" as="geometry">
            <mxPoint x="240" y="840" as="sourcePoint" />
            <mxPoint x="400" y="840" as="targetPoint" />
          </mxGeometry>
        </mxCell>
        <mxCell id="3Q9VjhLFoMXuuxBaP2ft-132" value="Extends" style="endArrow=block;endSize=16;endFill=0;html=1;rounded=0;exitX=0.998;exitY=1.038;exitDx=0;exitDy=0;exitPerimeter=0;entryX=-0.013;entryY=0.926;entryDx=0;entryDy=0;entryPerimeter=0;" edge="1" parent="1" source="3Q9VjhLFoMXuuxBaP2ft-109" target="3Q9VjhLFoMXuuxBaP2ft-12">
          <mxGeometry width="160" relative="1" as="geometry">
            <mxPoint x="240" y="840" as="sourcePoint" />
            <mxPoint x="400" y="840" as="targetPoint" />
          </mxGeometry>
        </mxCell>
        <mxCell id="3Q9VjhLFoMXuuxBaP2ft-133" value="Extends" style="endArrow=block;endSize=16;endFill=0;html=1;rounded=0;entryX=0.125;entryY=0.913;entryDx=0;entryDy=0;entryPerimeter=0;" edge="1" parent="1" source="3Q9VjhLFoMXuuxBaP2ft-101" target="3Q9VjhLFoMXuuxBaP2ft-13">
          <mxGeometry width="160" relative="1" as="geometry">
            <mxPoint x="240" y="840" as="sourcePoint" />
            <mxPoint x="400" y="840" as="targetPoint" />
          </mxGeometry>
        </mxCell>
        <mxCell id="3Q9VjhLFoMXuuxBaP2ft-134" value="Extends" style="endArrow=block;endSize=16;endFill=0;html=1;rounded=0;exitX=1;exitY=0.5;exitDx=0;exitDy=0;entryX=0.054;entryY=1.298;entryDx=0;entryDy=0;entryPerimeter=0;" edge="1" parent="1" source="3Q9VjhLFoMXuuxBaP2ft-113" target="3Q9VjhLFoMXuuxBaP2ft-13">
          <mxGeometry width="160" relative="1" as="geometry">
            <mxPoint x="240" y="840" as="sourcePoint" />
            <mxPoint x="400" y="840" as="targetPoint" />
          </mxGeometry>
        </mxCell>
        <mxCell id="3Q9VjhLFoMXuuxBaP2ft-136" value="&lt;font style=&quot;font-size: 18px;&quot;&gt;CASO 2&lt;/font&gt;" style="rounded=0;whiteSpace=wrap;html=1;" vertex="1" parent="1">
          <mxGeometry x="330" y="640" width="160" height="30" as="geometry" />
        </mxCell>
        <mxCell id="3Q9VjhLFoMXuuxBaP2ft-137" value="&lt;font style=&quot;font-size: 18px;&quot;&gt;CASO 3&lt;/font&gt;" style="rounded=0;whiteSpace=wrap;html=1;" vertex="1" parent="1">
          <mxGeometry x="280" y="1120" width="160" height="30" as="geometry" />
        </mxCell>
        <mxCell id="3Q9VjhLFoMXuuxBaP2ft-138" value="Auditoria" style="swimlane;fontStyle=1;align=center;verticalAlign=top;childLayout=stackLayout;horizontal=1;startSize=26;horizontalStack=0;resizeParent=1;resizeParentMax=0;resizeLast=0;collapsible=1;marginBottom=0;whiteSpace=wrap;html=1;" vertex="1" parent="1">
          <mxGeometry x="520" y="1140" width="240" height="138" as="geometry" />
        </mxCell>
        <mxCell id="3Q9VjhLFoMXuuxBaP2ft-139" value="- estado: Boolean" style="text;strokeColor=none;fillColor=none;align=left;verticalAlign=top;spacingLeft=4;spacingRight=4;overflow=hidden;rotatable=0;points=[[0,0.5],[1,0.5]];portConstraint=eastwest;whiteSpace=wrap;html=1;" vertex="1" parent="3Q9VjhLFoMXuuxBaP2ft-138">
          <mxGeometry y="26" width="240" height="26" as="geometry" />
        </mxCell>
        <mxCell id="3Q9VjhLFoMXuuxBaP2ft-140" value="- fechaCreacion: LocalDateTime" style="text;strokeColor=none;fillColor=none;align=left;verticalAlign=top;spacingLeft=4;spacingRight=4;overflow=hidden;rotatable=0;points=[[0,0.5],[1,0.5]];portConstraint=eastwest;whiteSpace=wrap;html=1;" vertex="1" parent="3Q9VjhLFoMXuuxBaP2ft-138">
          <mxGeometry y="52" width="240" height="26" as="geometry" />
        </mxCell>
        <mxCell id="3Q9VjhLFoMXuuxBaP2ft-141" value="- fechaModificacion: LocalDateTime" style="text;strokeColor=none;fillColor=none;align=left;verticalAlign=top;spacingLeft=4;spacingRight=4;overflow=hidden;rotatable=0;points=[[0,0.5],[1,0.5]];portConstraint=eastwest;whiteSpace=wrap;html=1;" vertex="1" parent="3Q9VjhLFoMXuuxBaP2ft-138">
          <mxGeometry y="78" width="240" height="26" as="geometry" />
        </mxCell>
        <mxCell id="3Q9VjhLFoMXuuxBaP2ft-142" value="- fechaEliminacion: LocalDateTime" style="text;strokeColor=none;fillColor=none;align=left;verticalAlign=top;spacingLeft=4;spacingRight=4;overflow=hidden;rotatable=0;points=[[0,0.5],[1,0.5]];portConstraint=eastwest;whiteSpace=wrap;html=1;" vertex="1" parent="3Q9VjhLFoMXuuxBaP2ft-138">
          <mxGeometry y="104" width="240" height="26" as="geometry" />
        </mxCell>
        <mxCell id="3Q9VjhLFoMXuuxBaP2ft-143" value="" style="line;strokeWidth=1;fillColor=none;align=left;verticalAlign=middle;spacingTop=-1;spacingLeft=3;spacingRight=3;rotatable=0;labelPosition=right;points=[];portConstraint=eastwest;strokeColor=inherit;" vertex="1" parent="3Q9VjhLFoMXuuxBaP2ft-138">
          <mxGeometry y="130" width="240" height="8" as="geometry" />
        </mxCell>
        <mxCell id="3Q9VjhLFoMXuuxBaP2ft-144" value="Generica" style="swimlane;fontStyle=1;align=center;verticalAlign=top;childLayout=stackLayout;horizontal=1;startSize=26;horizontalStack=0;resizeParent=1;resizeParentMax=0;resizeLast=0;collapsible=1;marginBottom=0;whiteSpace=wrap;html=1;" vertex="1" parent="1">
          <mxGeometry x="240" y="1166" width="230" height="86" as="geometry" />
        </mxCell>
        <mxCell id="3Q9VjhLFoMXuuxBaP2ft-145" value="- id: Long" style="text;strokeColor=none;fillColor=none;align=left;verticalAlign=top;spacingLeft=4;spacingRight=4;overflow=hidden;rotatable=0;points=[[0,0.5],[1,0.5]];portConstraint=eastwest;whiteSpace=wrap;html=1;" vertex="1" parent="3Q9VjhLFoMXuuxBaP2ft-144">
          <mxGeometry y="26" width="230" height="26" as="geometry" />
        </mxCell>
        <mxCell id="3Q9VjhLFoMXuuxBaP2ft-146" value="- nombre: String" style="text;strokeColor=none;fillColor=none;align=left;verticalAlign=top;spacingLeft=4;spacingRight=4;overflow=hidden;rotatable=0;points=[[0,0.5],[1,0.5]];portConstraint=eastwest;whiteSpace=wrap;html=1;" vertex="1" parent="3Q9VjhLFoMXuuxBaP2ft-144">
          <mxGeometry y="52" width="230" height="26" as="geometry" />
        </mxCell>
        <mxCell id="3Q9VjhLFoMXuuxBaP2ft-147" value="" style="line;strokeWidth=1;fillColor=none;align=left;verticalAlign=middle;spacingTop=-1;spacingLeft=3;spacingRight=3;rotatable=0;labelPosition=right;points=[];portConstraint=eastwest;strokeColor=inherit;" vertex="1" parent="3Q9VjhLFoMXuuxBaP2ft-144">
          <mxGeometry y="78" width="230" height="8" as="geometry" />
        </mxCell>
        <mxCell id="3Q9VjhLFoMXuuxBaP2ft-148" value="Extends" style="endArrow=block;endSize=16;endFill=0;html=1;rounded=0;entryX=-0.02;entryY=0.504;entryDx=0;entryDy=0;entryPerimeter=0;exitX=1;exitY=0.5;exitDx=0;exitDy=0;" edge="1" parent="1" source="3Q9VjhLFoMXuuxBaP2ft-146" target="3Q9VjhLFoMXuuxBaP2ft-140">
          <mxGeometry width="160" relative="1" as="geometry">
            <mxPoint x="290" y="1130" as="sourcePoint" />
            <mxPoint x="450" y="1130" as="targetPoint" />
          </mxGeometry>
        </mxCell>
        <mxCell id="3Q9VjhLFoMXuuxBaP2ft-149" value="Pais" style="swimlane;fontStyle=1;align=center;verticalAlign=top;childLayout=stackLayout;horizontal=1;startSize=26;horizontalStack=0;resizeParent=1;resizeParentMax=0;resizeLast=0;collapsible=1;marginBottom=0;whiteSpace=wrap;html=1;" vertex="1" parent="1">
          <mxGeometry x="100" y="1340" width="150" height="60" as="geometry" />
        </mxCell>
        <mxCell id="3Q9VjhLFoMXuuxBaP2ft-151" value="- continenteId: Continente" style="text;strokeColor=none;fillColor=none;align=left;verticalAlign=top;spacingLeft=4;spacingRight=4;overflow=hidden;rotatable=0;points=[[0,0.5],[1,0.5]];portConstraint=eastwest;whiteSpace=wrap;html=1;" vertex="1" parent="3Q9VjhLFoMXuuxBaP2ft-149">
          <mxGeometry y="26" width="150" height="26" as="geometry" />
        </mxCell>
        <mxCell id="3Q9VjhLFoMXuuxBaP2ft-152" value="" style="line;strokeWidth=1;fillColor=none;align=left;verticalAlign=middle;spacingTop=-1;spacingLeft=3;spacingRight=3;rotatable=0;labelPosition=right;points=[];portConstraint=eastwest;strokeColor=inherit;" vertex="1" parent="3Q9VjhLFoMXuuxBaP2ft-149">
          <mxGeometry y="52" width="150" height="8" as="geometry" />
        </mxCell>
        <mxCell id="3Q9VjhLFoMXuuxBaP2ft-153" value="Estado" style="swimlane;fontStyle=1;align=center;verticalAlign=top;childLayout=stackLayout;horizontal=1;startSize=26;horizontalStack=0;resizeParent=1;resizeParentMax=0;resizeLast=0;collapsible=1;marginBottom=0;whiteSpace=wrap;html=1;" vertex="1" parent="1">
          <mxGeometry x="290" y="1340" width="150" height="60" as="geometry" />
        </mxCell>
        <mxCell id="3Q9VjhLFoMXuuxBaP2ft-154" value="- paisId: Pais" style="text;strokeColor=none;fillColor=none;align=left;verticalAlign=top;spacingLeft=4;spacingRight=4;overflow=hidden;rotatable=0;points=[[0,0.5],[1,0.5]];portConstraint=eastwest;whiteSpace=wrap;html=1;" vertex="1" parent="3Q9VjhLFoMXuuxBaP2ft-153">
          <mxGeometry y="26" width="150" height="26" as="geometry" />
        </mxCell>
        <mxCell id="3Q9VjhLFoMXuuxBaP2ft-155" value="" style="line;strokeWidth=1;fillColor=none;align=left;verticalAlign=middle;spacingTop=-1;spacingLeft=3;spacingRight=3;rotatable=0;labelPosition=right;points=[];portConstraint=eastwest;strokeColor=inherit;" vertex="1" parent="3Q9VjhLFoMXuuxBaP2ft-153">
          <mxGeometry y="52" width="150" height="8" as="geometry" />
        </mxCell>
        <mxCell id="3Q9VjhLFoMXuuxBaP2ft-156" value="Ciudad" style="swimlane;fontStyle=1;align=center;verticalAlign=top;childLayout=stackLayout;horizontal=1;startSize=26;horizontalStack=0;resizeParent=1;resizeParentMax=0;resizeLast=0;collapsible=1;marginBottom=0;whiteSpace=wrap;html=1;" vertex="1" parent="1">
          <mxGeometry x="470" y="1340" width="150" height="60" as="geometry" />
        </mxCell>
        <mxCell id="3Q9VjhLFoMXuuxBaP2ft-157" value="- estadoId: Estado" style="text;strokeColor=none;fillColor=none;align=left;verticalAlign=top;spacingLeft=4;spacingRight=4;overflow=hidden;rotatable=0;points=[[0,0.5],[1,0.5]];portConstraint=eastwest;whiteSpace=wrap;html=1;" vertex="1" parent="3Q9VjhLFoMXuuxBaP2ft-156">
          <mxGeometry y="26" width="150" height="26" as="geometry" />
        </mxCell>
        <mxCell id="3Q9VjhLFoMXuuxBaP2ft-158" value="" style="line;strokeWidth=1;fillColor=none;align=left;verticalAlign=middle;spacingTop=-1;spacingLeft=3;spacingRight=3;rotatable=0;labelPosition=right;points=[];portConstraint=eastwest;strokeColor=inherit;" vertex="1" parent="3Q9VjhLFoMXuuxBaP2ft-156">
          <mxGeometry y="52" width="150" height="8" as="geometry" />
        </mxCell>
        <mxCell id="3Q9VjhLFoMXuuxBaP2ft-159" value="" style="endArrow=none;html=1;edgeStyle=orthogonalEdgeStyle;rounded=0;exitX=1.015;exitY=0.354;exitDx=0;exitDy=0;exitPerimeter=0;entryX=0;entryY=0.5;entryDx=0;entryDy=0;" edge="1" parent="1" source="3Q9VjhLFoMXuuxBaP2ft-149" target="3Q9VjhLFoMXuuxBaP2ft-154">
          <mxGeometry relative="1" as="geometry">
            <mxPoint x="250" y="1270" as="sourcePoint" />
            <mxPoint x="410" y="1270" as="targetPoint" />
          </mxGeometry>
        </mxCell>
        <mxCell id="3Q9VjhLFoMXuuxBaP2ft-160" value="parent" style="edgeLabel;resizable=0;html=1;align=left;verticalAlign=bottom;" connectable="0" vertex="1" parent="3Q9VjhLFoMXuuxBaP2ft-159">
          <mxGeometry x="-1" relative="1" as="geometry" />
        </mxCell>
        <mxCell id="3Q9VjhLFoMXuuxBaP2ft-161" value="child" style="edgeLabel;resizable=0;html=1;align=right;verticalAlign=bottom;" connectable="0" vertex="1" parent="3Q9VjhLFoMXuuxBaP2ft-159">
          <mxGeometry x="1" relative="1" as="geometry" />
        </mxCell>
        <mxCell id="3Q9VjhLFoMXuuxBaP2ft-162" value="" style="endArrow=none;html=1;edgeStyle=orthogonalEdgeStyle;rounded=0;exitX=1;exitY=0.25;exitDx=0;exitDy=0;entryX=0.02;entryY=0.785;entryDx=0;entryDy=0;entryPerimeter=0;" edge="1" parent="1" source="3Q9VjhLFoMXuuxBaP2ft-153" target="3Q9VjhLFoMXuuxBaP2ft-157">
          <mxGeometry relative="1" as="geometry">
            <mxPoint x="250" y="1270" as="sourcePoint" />
            <mxPoint x="410" y="1270" as="targetPoint" />
          </mxGeometry>
        </mxCell>
        <mxCell id="3Q9VjhLFoMXuuxBaP2ft-163" value="parent" style="edgeLabel;resizable=0;html=1;align=left;verticalAlign=bottom;" connectable="0" vertex="1" parent="3Q9VjhLFoMXuuxBaP2ft-162">
          <mxGeometry x="-1" relative="1" as="geometry" />
        </mxCell>
        <mxCell id="3Q9VjhLFoMXuuxBaP2ft-164" value="child" style="edgeLabel;resizable=0;html=1;align=right;verticalAlign=bottom;" connectable="0" vertex="1" parent="3Q9VjhLFoMXuuxBaP2ft-162">
          <mxGeometry x="1" relative="1" as="geometry" />
        </mxCell>
        <mxCell id="3Q9VjhLFoMXuuxBaP2ft-165" value="Extends" style="endArrow=block;endSize=16;endFill=0;html=1;rounded=0;exitX=0.546;exitY=-0.041;exitDx=0;exitDy=0;exitPerimeter=0;entryX=0.124;entryY=0.764;entryDx=0;entryDy=0;entryPerimeter=0;" edge="1" parent="1" source="3Q9VjhLFoMXuuxBaP2ft-149" target="3Q9VjhLFoMXuuxBaP2ft-147">
          <mxGeometry width="160" relative="1" as="geometry">
            <mxPoint x="250" y="1270" as="sourcePoint" />
            <mxPoint x="410" y="1270" as="targetPoint" />
          </mxGeometry>
        </mxCell>
        <mxCell id="3Q9VjhLFoMXuuxBaP2ft-166" value="Extends" style="endArrow=block;endSize=16;endFill=0;html=1;rounded=0;exitX=0.454;exitY=-0.029;exitDx=0;exitDy=0;exitPerimeter=0;entryX=0.472;entryY=0.764;entryDx=0;entryDy=0;entryPerimeter=0;" edge="1" parent="1" source="3Q9VjhLFoMXuuxBaP2ft-153" target="3Q9VjhLFoMXuuxBaP2ft-147">
          <mxGeometry width="160" relative="1" as="geometry">
            <mxPoint x="250" y="1270" as="sourcePoint" />
            <mxPoint x="410" y="1270" as="targetPoint" />
          </mxGeometry>
        </mxCell>
        <mxCell id="3Q9VjhLFoMXuuxBaP2ft-167" value="Extends" style="endArrow=block;endSize=16;endFill=0;html=1;rounded=0;exitX=0.202;exitY=-0.004;exitDx=0;exitDy=0;exitPerimeter=0;entryX=0.75;entryY=1;entryDx=0;entryDy=0;" edge="1" parent="1" source="3Q9VjhLFoMXuuxBaP2ft-156" target="3Q9VjhLFoMXuuxBaP2ft-144">
          <mxGeometry width="160" relative="1" as="geometry">
            <mxPoint x="250" y="1270" as="sourcePoint" />
            <mxPoint x="410" y="1270" as="targetPoint" />
          </mxGeometry>
        </mxCell>
        <mxCell id="3Q9VjhLFoMXuuxBaP2ft-169" value="Continente" style="swimlane;fontStyle=1;align=center;verticalAlign=top;childLayout=stackLayout;horizontal=1;startSize=26;horizontalStack=0;resizeParent=1;resizeParentMax=0;resizeLast=0;collapsible=1;marginBottom=0;whiteSpace=wrap;html=1;" vertex="1" parent="1">
          <mxGeometry x="40" y="1244" width="150" height="34" as="geometry" />
        </mxCell>
        <mxCell id="3Q9VjhLFoMXuuxBaP2ft-171" value="" style="line;strokeWidth=1;fillColor=none;align=left;verticalAlign=middle;spacingTop=-1;spacingLeft=3;spacingRight=3;rotatable=0;labelPosition=right;points=[];portConstraint=eastwest;strokeColor=inherit;" vertex="1" parent="3Q9VjhLFoMXuuxBaP2ft-169">
          <mxGeometry y="26" width="150" height="8" as="geometry" />
        </mxCell>
        <mxCell id="3Q9VjhLFoMXuuxBaP2ft-176" value="Extends" style="endArrow=block;endSize=16;endFill=0;html=1;rounded=0;entryX=0;entryY=0.5;entryDx=0;entryDy=0;exitX=0.905;exitY=0.122;exitDx=0;exitDy=0;exitPerimeter=0;" edge="1" parent="1" source="3Q9VjhLFoMXuuxBaP2ft-169" target="3Q9VjhLFoMXuuxBaP2ft-145">
          <mxGeometry width="160" relative="1" as="geometry">
            <mxPoint x="190" y="1274.64" as="sourcePoint" />
            <mxPoint x="350" y="1274.64" as="targetPoint" />
          </mxGeometry>
        </mxCell>
        <mxCell id="3Q9VjhLFoMXuuxBaP2ft-177" value="" style="endArrow=none;html=1;edgeStyle=orthogonalEdgeStyle;rounded=0;exitX=1;exitY=1;exitDx=0;exitDy=0;entryX=0.343;entryY=-0.019;entryDx=0;entryDy=0;entryPerimeter=0;" edge="1" parent="1" source="3Q9VjhLFoMXuuxBaP2ft-169" target="3Q9VjhLFoMXuuxBaP2ft-149">
          <mxGeometry relative="1" as="geometry">
            <mxPoint x="360" y="1260" as="sourcePoint" />
            <mxPoint x="520" y="1260" as="targetPoint" />
          </mxGeometry>
        </mxCell>
        <mxCell id="3Q9VjhLFoMXuuxBaP2ft-178" value="parent" style="edgeLabel;resizable=0;html=1;align=left;verticalAlign=bottom;" connectable="0" vertex="1" parent="3Q9VjhLFoMXuuxBaP2ft-177">
          <mxGeometry x="-1" relative="1" as="geometry" />
        </mxCell>
        <mxCell id="3Q9VjhLFoMXuuxBaP2ft-179" value="child" style="edgeLabel;resizable=0;html=1;align=right;verticalAlign=bottom;" connectable="0" vertex="1" parent="3Q9VjhLFoMXuuxBaP2ft-177">
          <mxGeometry x="1" relative="1" as="geometry" />
        </mxCell>
      </root>
    </mxGraphModel>
  </diagram>
</mxfile>
